<?xml version="1.0" encoding="UTF-8"?>
<svg width="605px" height="410px" viewBox="0 0 605 410" version="1.1" xmlns="http://www.w3.org/2000/svg" xmlns:xlink="http://www.w3.org/1999/xlink">
    <!-- Generator: Sketch 55 (78076) - https://sketchapp.com -->
    <title>Path</title>
    <desc>Created with Sketch.</desc>
    <g id="Fliply" stroke="none" stroke-width="1" fill="none" fill-rule="evenodd" opacity="0.100000001">
        <g id="Landing-Screen" transform="translate(-769.000000, -3903.000000)" fill="#FFFFFF" fill-rule="nonzero" stroke="#0774DD" stroke-width="12.8000002">
            <g id="Impact" transform="translate(0.000000, 3858.000000)">
                <g id="icons8-bullish_filled" transform="translate(769.000000, 45.000000)">
                    <path d="M464.455029,6.4000001 L464.455029,42.6926098 L537.004396,42.6926098 L409.073371,170.913422 L404.542771,166.372559 L372.731831,134.489015 L360.091643,121.538664 L347.402201,134.53907 L213.146743,269.098642 L208.616142,264.557779 L176.805203,232.674234 L164.165014,219.723884 L151.475572,232.72429 L9.04074481,375.481759 L34.4402277,400.938776 L164.165085,270.920067 L168.695686,275.46093 L200.506625,307.344475 L213.146814,320.294825 L225.836256,307.294419 L360.091714,172.734847 L364.622314,177.27571 L396.433254,209.159255 L409.073443,222.109605 L421.762885,209.1092 L562.418343,68.1351301 L562.418343,140.87783 L598.6,140.87783 L598.6,6.4000001 L464.455029,6.4000001 Z" id="Path"></path>
                </g>
            </g>
        </g>
    </g>
</svg>