<?xml version="1.0" encoding="UTF-8"?>
<svg width="13px" height="13px" viewBox="0 0 13 13" version="1.1" xmlns="http://www.w3.org/2000/svg" xmlns:xlink="http://www.w3.org/1999/xlink">
    <!-- Generator: Sketch 55 (78076) - https://sketchapp.com -->
    <title>icons8-google_logo</title>
    <desc>Created with Sketch.</desc>
    <g id="Fliply" stroke="none" stroke-width="1" fill="none" fill-rule="evenodd">
        <g id="Landing-Screen" transform="translate(-814.000000, -1796.000000)" fill="#0074E4" fill-rule="nonzero">
            <g id="Group-29" transform="translate(172.000000, 1459.000000)">
                <g id="Group-26" transform="translate(639.999962, 85.199995)">
                    <g id="Group-15" transform="translate(1.000000, 113.199993)">
                        <g id="Group-14-Copy" transform="translate(1.000000, 136.999994)">
                            <g id="icons8-google_logo" transform="translate(0.000038, 1.600018)">
                                <path d="M6.65818432,6.59847465 L6.65818432,6.59847465 C6.65818432,7.2835399 7.22739694,7.83926172 7.92909296,7.83926172 L10.2831699,7.83926172 C9.87906226,9.12099672 8.88443811,10.0926974 7.44709304,10.3520343 C5.16291937,10.7647634 2.87874571,9.13984576 2.6603811,6.88186028 C2.43402754,4.54522878 4.31076481,2.57907849 6.65818432,2.57907849 C7.32526156,2.57907849 7.95372555,2.73897038 8.50696027,3.02040611 C9.0109298,3.27714309 9.62741037,3.17379833 10.0288551,2.78121824 L10.0288551,2.78121824 C10.6639765,2.16114968 10.4955428,1.11535272 9.69731367,0.714973023 C8.5801923,0.154701437 7.27999085,-0.106585312 5.90788886,0.0403072384 C2.8567761,0.366590691 0.375541688,2.78706794 0.0413373218,5.76586687 C-0.398720619,9.68516811 2.73294739,13 6.65818432,13 C10.8976533,13 12.6312552,10.0653988 12.9821032,7.54157682 C13.1432137,6.38463549 12.1951917,5.36288731 10.9995124,5.36158737 L7.93042445,5.35768757 C7.22806269,5.35638764 6.65818432,5.91210946 6.65818432,6.59847465 Z" id="Path"></path>
                            </g>
                        </g>
                    </g>
                </g>
            </g>
        </g>
    </g>
</svg>