<?xml version="1.0" encoding="UTF-8"?>
<svg width="14px" height="15px" viewBox="0 0 14 15" version="1.1" xmlns="http://www.w3.org/2000/svg" xmlns:xlink="http://www.w3.org/1999/xlink">
    <!-- Generator: Sketch 55 (78076) - https://sketchapp.com -->
    <title>icons8-linkedin</title>
    <desc>Created with Sketch.</desc>
    <g id="Fliply" stroke="none" stroke-width="1" fill="none" fill-rule="evenodd">
        <g id="Landing-Screen" transform="translate(-813.000000, -1727.000000)" fill="#0074E4" fill-rule="nonzero">
            <g id="Group-29" transform="translate(172.000000, 1459.000000)">
                <g id="Group-26" transform="translate(639.999962, 85.199995)">
                    <g id="Group-15" transform="translate(1.000000, 113.199993)">
                        <g id="Group-14" transform="translate(0.000000, 68.999996)">
                            <g id="icons8-linkedin" transform="translate(0.000000, 1.000000)">
                                <path d="M12.4444444,0 L1.55555556,0 C0.696111111,0 0,0.696111111 0,1.55555556 L0,12.4444444 C0,13.3038889 0.696111111,14 1.55555556,14 L12.4444444,14 C13.3038889,14 14,13.3038889 14,12.4444444 L14,1.55555556 C14,0.696111111 13.3038889,0 12.4444444,0 Z M3.68511111,10.8888889 L3.68511111,10.8888889 C3.143,10.8888889 2.70355556,10.4494444 2.70355556,9.90733333 L2.70355556,6.42522222 C2.70433333,5.88388889 3.14377778,5.44444444 3.68511111,5.44444444 L3.68511111,5.44444444 C4.22722222,5.44444444 4.66666667,5.88388889 4.66666667,6.426 L4.66666667,9.90811111 C4.66666667,10.4494444 4.22722222,10.8888889 3.68511111,10.8888889 Z M3.65088889,4.44655556 C3.05122222,4.44655556 2.65066667,4.04677778 2.65066667,3.51322222 C2.65066667,2.97966667 3.05044444,2.57988889 3.717,2.57988889 C4.31666667,2.57988889 4.71722222,2.97966667 4.71722222,3.51322222 C4.71722222,4.04677778 4.31744444,4.44655556 3.65088889,4.44655556 Z M10.717,10.8888889 L10.717,10.8888889 C10.1927778,10.8888889 9.76733333,10.4634444 9.76733333,9.93922222 L9.76733333,7.91311111 C9.76733333,7.09022222 9.261,7 9.07122222,7 C8.88144444,7 8.24833333,7.02722222 8.24833333,7.91311111 L8.24833333,9.93922222 C8.24833333,10.4634444 7.82288889,10.8888889 7.29866667,10.8888889 L7.23566667,10.8888889 C6.71144444,10.8888889 6.286,10.4634444 6.286,9.93922222 L6.286,6.426 C6.286,5.88388889 6.72544444,5.44444444 7.26755556,5.44444444 L7.26755556,5.44444444 C7.80966667,5.44444444 8.24911111,5.88388889 8.24911111,6.426 C8.24911111,6.426 8.46844444,5.44444444 9.95866667,5.44444444 C10.9067778,5.44444444 11.6666667,6.20433333 11.6666667,7.91311111 L11.6666667,9.93922222 C11.6666667,10.4634444 11.2412222,10.8888889 10.717,10.8888889 Z" id="Shape"></path>
                            </g>
                        </g>
                    </g>
                </g>
            </g>
        </g>
    </g>
</svg>