<?xml version="1.0" encoding="UTF-8"?>
<svg width="14px" height="15px" viewBox="0 0 14 15" version="1.1" xmlns="http://www.w3.org/2000/svg" xmlns:xlink="http://www.w3.org/1999/xlink">
    <!-- Generator: Sketch 55 (78076) - https://sketchapp.com -->
    <title>icons8-instagram_new</title>
    <desc>Created with Sketch.</desc>
    <g id="Fliply" stroke="none" stroke-width="1" fill="none" fill-rule="evenodd">
        <g id="Landing-Screen" transform="translate(-813.000000, -1761.000000)" fill="#0074E4" fill-rule="nonzero">
            <g id="Group-29" transform="translate(172.000000, 1459.000000)">
                <g id="Group-26" transform="translate(639.999962, 85.199995)">
                    <g id="Group-15" transform="translate(1.000000, 113.199993)">
                        <g id="Group-14" transform="translate(0.000000, 102.999994)">
                            <g id="icons8-instagram_new" transform="translate(0.000000, 1.000000)">
                                <path d="M3.88888889,0 C1.74144444,0 0,1.74144444 0,3.88888889 L0,10.1111111 C0,12.2585556 1.74144444,14 3.88888889,14 L10.1111111,14 C12.2585556,14 14,12.2585556 14,10.1111111 L14,3.88888889 C14,1.74144444 12.2585556,0 10.1111111,0 L3.88888889,0 Z M11.6666667,1.55555556 C12.096,1.55555556 12.4444444,1.904 12.4444444,2.33333333 C12.4444444,2.76266667 12.096,3.11111111 11.6666667,3.11111111 C11.2373333,3.11111111 10.8888889,2.76266667 10.8888889,2.33333333 C10.8888889,1.904 11.2373333,1.55555556 11.6666667,1.55555556 Z M7,3.11111111 C9.14744444,3.11111111 10.8888889,4.85255556 10.8888889,7 C10.8888889,9.14744444 9.14744444,10.8888889 7,10.8888889 C4.85255556,10.8888889 3.11111111,9.14744444 3.11111111,7 C3.11111111,4.85255556 4.85255556,3.11111111 7,3.11111111 Z M7,4.66666667 C5.71133558,4.66666667 4.66666667,5.71133558 4.66666667,7 C4.66666667,8.28866442 5.71133558,9.33333333 7,9.33333333 C8.28866442,9.33333333 9.33333333,8.28866442 9.33333333,7 C9.33333333,5.71133558 8.28866442,4.66666667 7,4.66666667 Z" id="Shape"></path>
                            </g>
                        </g>
                    </g>
                </g>
            </g>
        </g>
    </g>
</svg>