<?xml version="1.0" encoding="UTF-8"?>
<svg width="43px" height="22px" viewBox="0 0 43 22" version="1.1" xmlns="http://www.w3.org/2000/svg" xmlns:xlink="http://www.w3.org/1999/xlink">
    <!-- Generator: Sketch 55 (78076) - https://sketchapp.com -->
    <title>icons8-search_bar</title>
    <desc>Created with Sketch.</desc>
    <g id="Fliply" stroke="none" stroke-width="1" fill="none" fill-rule="evenodd">
        <g id="Landing-Screen" transform="translate(-1199.000000, -2350.000000)" fill="#FFFFFF" fill-rule="nonzero">
            <g id="Group-7" transform="translate(0.000000, 2072.000000)">
                <g id="Group-6-Copy-5" transform="translate(1135.000000, 243.000000)">
                    <g id="icons8-search_bar" transform="translate(64.000000, 35.000000)">
                        <path d="M3.58333333,0 C1.60354167,0 0,1.64083333 0,3.66666667 L0,18.3333333 C0,20.3591667 1.60354167,22 3.58333333,22 L39.4166667,22 C41.3964583,22 43,20.3591667 43,18.3333333 L43,3.66666667 C43,1.64083333 41.3964583,0 39.4166667,0 L3.58333333,0 Z M31.5746259,3.67024735 C31.8339553,3.67941273 32.0969236,3.70651307 32.3619792,3.74902348 C34.6123125,4.11019015 36.5244401,5.80467708 37.2715651,8.00651133 C37.9165651,9.90767617 37.6167691,11.656964 36.8481441,13.1126307 L38.5208333,14.8242197 C39.2195833,15.5392197 39.2195833,16.7016667 38.5208333,17.4166667 C37.8220833,18.1316667 36.6860556,18.1316667 35.9873056,17.4166667 L34.3146163,15.7050777 C32.8938247,16.493411 31.1825017,16.7983457 29.3245452,16.1383457 C27.1727517,15.3738457 25.5167769,13.41725 25.1638186,11.1145833 C24.5406536,7.04458333 27.6846792,3.53276752 31.5746259,3.67024735 Z M31.3541667,6.64583333 C29.4988351,6.64583333 27.9947917,8.18485451 27.9947917,10.0833333 C27.9947917,11.9818122 29.4988351,13.5208333 31.3541667,13.5208333 C33.2094982,13.5208333 34.7135417,11.9818122 34.7135417,10.0833333 C34.7135417,8.18485451 33.2094982,6.64583333 31.3541667,6.64583333 Z" id="Shape"></path>
                    </g>
                </g>
            </g>
        </g>
    </g>
</svg>