<?xml version="1.0" encoding="UTF-8"?>
<svg width="33px" height="40px" viewBox="0 0 33 40" version="1.1" xmlns="http://www.w3.org/2000/svg" xmlns:xlink="http://www.w3.org/1999/xlink">
    <!-- Generator: Sketch 55 (78076) - https://sketchapp.com -->
    <title>icons8-terms_and_conditions</title>
    <desc>Created with Sketch.</desc>
    <g id="Fliply" stroke="none" stroke-width="1" fill="none" fill-rule="evenodd">
        <g id="Landing-Screen" transform="translate(-803.000000, -2341.000000)" fill="#FFFFFF" fill-rule="nonzero">
            <g id="Group-7" transform="translate(0.000000, 2072.000000)">
                <g id="Group-6-Copy-3" transform="translate(735.000000, 243.000000)">
                    <g id="icons8-terms_and_conditions" transform="translate(68.000000, 26.000000)">
                        <path d="M3.47368421,0 C1.56315789,0 0,1.63636364 0,3.63636364 L0,27.2727273 C0,28.2763636 0.778105263,29.0909091 1.73684211,29.0909091 C2.69557895,29.0909091 3.47368421,28.2763636 3.47368421,27.2727273 L3.47368421,5.45454545 C3.47368421,4.45090909 4.25178947,3.63636364 5.21052632,3.63636364 L22.5789474,3.63636364 C23.5376842,3.63636364 24.3157895,2.82181818 24.3157895,1.81818182 C24.3157895,0.814545455 23.5376842,0 22.5789474,0 L3.47368421,0 Z M10.4210526,7.27272727 C8.51052632,7.27272727 6.94736842,8.90909091 6.94736842,10.9090909 L6.94736842,36.3636364 C6.94736842,38.3636364 8.51052632,40 10.4210526,40 L29.5263158,40 C31.4368421,40 33,38.3636364 33,36.3636364 L33,10.9090909 C33,8.9 31.4455263,7.27272727 29.5263158,7.27272727 L10.4210526,7.27272727 Z M15.6315789,14.5454545 L24.3157895,14.5454545 C25.2745263,14.5454545 26.0526316,15.36 26.0526316,16.3636364 C26.0526316,17.3672727 25.2745263,18.1818182 24.3157895,18.1818182 L15.6315789,18.1818182 C14.6728421,18.1818182 13.8947368,17.3672727 13.8947368,16.3636364 C13.8947368,15.36 14.6728421,14.5454545 15.6315789,14.5454545 Z M15.6315789,21.8181818 L24.3157895,21.8181818 C25.2745263,21.8181818 26.0526316,22.6327273 26.0526316,23.6363636 C26.0526316,24.64 25.2745263,25.4545455 24.3157895,25.4545455 L15.6315789,25.4545455 C14.6728421,25.4545455 13.8947368,24.64 13.8947368,23.6363636 C13.8947368,22.6327273 14.6728421,21.8181818 15.6315789,21.8181818 Z M15.6315789,29.0909091 L24.3157895,29.0909091 C25.2745263,29.0909091 26.0526316,29.9054545 26.0526316,30.9090909 C26.0526316,31.9127273 25.2745263,32.7272727 24.3157895,32.7272727 L15.6315789,32.7272727 C14.6728421,32.7272727 13.8947368,31.9127273 13.8947368,30.9090909 C13.8947368,29.9054545 14.6728421,29.0909091 15.6315789,29.0909091 Z" id="Shape"></path>
                    </g>
                </g>
            </g>
        </g>
    </g>
</svg>