<?xml version="1.0" encoding="UTF-8"?>
<svg width="35px" height="35px" viewBox="0 0 35 35" version="1.1" xmlns="http://www.w3.org/2000/svg" xmlns:xlink="http://www.w3.org/1999/xlink">
    <!-- Generator: Sketch 55 (78076) - https://sketchapp.com -->
    <title>icons8-design</title>
    <desc>Created with Sketch.</desc>
    <g id="Fliply" stroke="none" stroke-width="1" fill="none" fill-rule="evenodd">
        <g id="Landing-Screen" transform="translate(-403.000000, -2343.000000)" fill="#FFFFFF" fill-rule="nonzero">
            <g id="Group-7" transform="translate(0.000000, 2072.000000)">
                <g id="Group-6-Copy" transform="translate(335.000000, 243.000000)">
                    <g id="icons8-design" transform="translate(67.000000, 28.000000)">
                        <path d="M30.909375,0 C29.606625,0 28.303875,0.496125 27.309375,1.490625 L25.2,3.6 L32.4,10.8 L34.509375,8.690625 C36.496575,6.703425 36.496575,3.479625 34.509375,1.490625 C33.514875,0.496125 32.212125,0 30.909375,0 Z M10.8,1.490625 C9.87885,1.490625 8.9575875,1.8424125 8.2546875,2.5453125 L2.5453125,8.2546875 C1.1395125,9.6604875 1.1395125,11.9395125 2.5453125,13.3453125 L5.4984375,16.2984384 C6.2022375,17.0022384 7.34175,17.0022384 8.04375,16.2984384 C8.74755,15.5964366 8.74926558,14.456925 8.04726558,13.753125 L5.090625,10.8 L10.8,5.090625 L13.753125,8.04726558 C14.456925,8.75106558 15.5964384,8.75106558 16.2984384,8.04726558 C17.0022384,7.34346558 17.0022384,6.20395308 16.2984384,5.50195308 L13.3453125,2.5453125 C12.6424125,1.8424125 11.72115,1.490625 10.8,1.490625 Z M22.5,6.3 L2.8546875,25.9453116 C2.1796875,26.6203116 1.8,27.536625 1.8,28.490625 L1.8,34.2 L7.509375,34.2 C8.463375,34.2 9.3796875,33.8203116 10.0546875,33.1453116 L29.7,13.5 L22.5,6.3 Z M29.2289058,19.1742192 C28.7681058,19.1739942 28.3046346,19.3470462 27.9527346,19.6980462 C27.2489346,20.4018462 27.2489346,21.5413596 27.9527346,22.2433596 L30.909375,25.2 L25.2,30.909375 L22.246875,27.95625 C21.543075,27.25245 20.4035634,27.25245 19.7015616,27.95625 C18.9977616,28.66005 18.9977634,29.7995616 19.7015616,30.5015616 L22.6546884,33.4546884 C24.0604884,34.8604866 26.3395134,34.8604866 27.7453116,33.4546884 L33.4546884,27.7453116 C34.8604866,26.3395134 34.8604884,24.0604866 33.4546884,22.6546884 L30.5015616,19.7015616 C30.1496616,19.3496634 29.6897058,19.1744442 29.2289058,19.1742192 Z" id="Shape"></path>
                    </g>
                </g>
            </g>
        </g>
    </g>
</svg>