<?xml version="1.0" encoding="UTF-8"?>
<svg width="36px" height="38px" viewBox="0 0 36 38" version="1.1" xmlns="http://www.w3.org/2000/svg" xmlns:xlink="http://www.w3.org/1999/xlink">
    <!-- Generator: Sketch 55 (78076) - https://sketchapp.com -->
    <title>icons8-neutral_trading</title>
    <desc>Created with Sketch.</desc>
    <g id="Fliply" stroke="none" stroke-width="1" fill="none" fill-rule="evenodd">
        <g id="Landing-Screen" transform="translate(-202.000000, -2342.000000)" fill="#FFFFFF" fill-rule="nonzero">
            <g id="Group-7" transform="translate(0.000000, 2072.000000)">
                <g id="Group-6" transform="translate(135.000000, 243.000000)">
                    <g id="icons8-neutral_trading" transform="translate(65.000000, 25.000000)">
                        <path d="M29.8125,2.0078124 C29.617656,2.02625 29.421876,2.0753438 29.234376,2.1523438 C28.486374,2.4623438 28,3.192 28,4 L28,8 L4,8 C3.27872817,7.98979942 2.60783727,8.36875059 2.24422456,8.9917457 C1.88061184,9.61474081 1.88061184,10.3852592 2.24422456,11.0082543 C2.60783727,11.6312494 3.27872817,12.0102006 4,12 L28,12 L28,16 C28,16.808 28.486376,17.5376562 29.234376,17.8476562 C29.482374,17.9496562 29.742,18 30,18 C30.52,18 31.032062,17.7960624 31.414062,17.4140624 L37.414062,11.4140624 C38.196062,10.6320624 38.196062,9.3679376 37.414062,8.5859376 L31.414062,2.5859376 C30.985062,2.1569374 30.397032,1.9525 29.8125,2.0078124 Z M3.96875,21.972656 C2.86571761,21.9898981 1.98489456,22.8969363 2,24 L2,38 C1.98979942,38.7212718 2.36875059,39.3921627 2.9917457,39.7557754 C3.61474081,40.1193882 4.38525919,40.1193882 5.0082543,39.7557754 C5.63124941,39.3921627 6.01020058,38.7212718 6,38 L6,24 C6.00740292,23.4593993 5.79564665,22.9388267 5.41298067,22.5568966 C5.03031468,22.1749664 4.50933542,21.9642125 3.96875,21.972656 L3.96875,21.972656 Z M11.96875,21.972656 C10.8657176,21.9898981 9.98489456,22.8969363 10,24 L10,38 C9.98979942,38.7212718 10.3687506,39.3921627 10.9917457,39.7557754 C11.6147408,40.1193882 12.3852592,40.1193882 13.0082543,39.7557754 C13.6312494,39.3921627 14.0102006,38.7212718 14,38 L14,24 C14.0074029,23.4593993 13.7956466,22.9388267 13.4129807,22.5568966 C13.0303147,22.1749664 12.5093354,21.9642125 11.96875,21.972656 Z M19.96875,21.972656 C18.8657176,21.9898981 17.9848946,22.8969363 18,24 L18,38 C17.9897994,38.7212718 18.3687506,39.3921627 18.9917457,39.7557754 C19.6147408,40.1193882 20.3852592,40.1193882 21.0082543,39.7557754 C21.6312494,39.3921627 22.0102006,38.7212718 22,38 L22,24 C22.0074029,23.4593993 21.7956466,22.9388267 21.4129807,22.5568966 C21.0303147,22.1749664 20.5093354,21.9642125 19.96875,21.972656 Z M27.96875,21.972656 C26.8657176,21.9898981 25.9848946,22.8969363 26,24 L26,38 C25.9897994,38.7212718 26.3687506,39.3921627 26.9917457,39.7557754 C27.6147408,40.1193882 28.3852592,40.1193882 29.0082543,39.7557754 C29.6312494,39.3921627 30.0102006,38.7212718 30,38 L30,24 C30.0074029,23.4593993 29.7956466,22.9388267 29.4129807,22.5568966 C29.0303147,22.1749664 28.5093354,21.9642125 27.96875,21.972656 Z M35.96875,21.972656 C34.8657176,21.9898981 33.9848946,22.8969363 34,24 L34,38 C33.9897994,38.7212718 34.3687506,39.3921627 34.9917457,39.7557754 C35.6147408,40.1193882 36.3852592,40.1193882 37.0082543,39.7557754 C37.6312494,39.3921627 38.0102006,38.7212718 38,38 L38,24 C38.0074029,23.4593993 37.7956466,22.9388267 37.4129807,22.5568966 C37.0303147,22.1749664 36.5093354,21.9642125 35.96875,21.972656 Z" id="Shape"></path>
                    </g>
                </g>
            </g>
        </g>
    </g>
</svg>