<?xml version="1.0" encoding="UTF-8"?>
<svg width="32px" height="36px" viewBox="0 0 32 36" version="1.1" xmlns="http://www.w3.org/2000/svg" xmlns:xlink="http://www.w3.org/1999/xlink">
    <!-- Generator: Sketch 55 (78076) - https://sketchapp.com -->
    <title>Path</title>
    <desc>Created with Sketch.</desc>
    <g id="Fliply" stroke="none" stroke-width="1" fill="none" fill-rule="evenodd">
        <g id="Landing-Screen" transform="translate(-1004.000000, -2344.000000)" fill="#FFFFFF" fill-rule="nonzero">
            <g id="Group-7" transform="translate(0.000000, 2072.000000)">
                <g id="Group-6-Copy-4" transform="translate(935.000000, 243.000000)">
                    <g id="icons8-customer_support" transform="translate(69.000000, 29.000000)">
                        <path d="M31.7191111,18.1566 L28.3537778,12.8124 C27.7208889,6.975 23.6426667,2.1978 18.224,0.5922 C17.1093333,0.261 16,1.1628 16,2.34 L16,13.0986 C17.0577778,13.7214 17.7777778,14.8698 17.7777778,16.2 C17.7777778,16.5204 17.7226667,16.8246 17.6462222,17.1216 L22.0835556,21.6144 C22.1297778,21.6108 22.1742222,21.6 22.2222222,21.6 C23.6942222,21.6 24.8888889,22.8096 24.8888889,24.3 C24.8888889,25.7904 23.6942222,27 22.2222222,27 C20.7502222,27 19.5555556,25.7904 19.5555556,24.3 C19.5555556,24.2514 19.5662222,24.2064 19.5697778,24.1596 L15.1324444,19.6668 C14.2222222,19.9098 13.2266667,19.9296 11.9537778,18.7596 C11.1591111,18.0288 10.5991111,17.0262 10.6755556,15.9426 C10.7626667,14.7222 11.456,13.6818 12.4444444,13.0986 L12.4444444,2.3346 C12.4444444,1.161 11.3422222,0.2592 10.2311111,0.5868 C4.32,2.3346 0,7.8516 0,14.4 C0,23.4072 5.33333333,22.3722 5.33333333,31.032 L5.33333333,32.4 C5.33333333,34.389 6.92444444,36 8.88888889,36 L17.7777778,36 C19.7422222,36 21.3333333,34.389 21.3333333,32.4 L21.3333333,30.6 L23.1111111,30.6 C26.0568889,30.6 28.4444444,28.1826 28.4444444,25.2 L28.4444444,21.6378 L30.9795556,20.556 C31.9057778,20.1618 32.2595556,19.0152 31.7191111,18.1566 Z" id="Path"></path>
                    </g>
                </g>
            </g>
        </g>
    </g>
</svg>