<?xml version="1.0" encoding="UTF-8"?>
<svg width="106px" height="244px" viewBox="0 0 106 244" version="1.1" xmlns="http://www.w3.org/2000/svg" xmlns:xlink="http://www.w3.org/1999/xlink">
    <!-- Generator: Sketch 55 (78076) - https://sketchapp.com -->
    <title>Group 9</title>
    <desc>Created with Sketch.</desc>
    <g id="Fliply" stroke="none" stroke-width="1" fill="none" fill-rule="evenodd">
        <g id="Landing-Screen" transform="translate(-234.000000, -696.000000)">
            <g id="Group-23" transform="translate(234.000000, 520.000000)">
                <g id="Group-21">
                    <g id="Group-9" transform="translate(53.199999, 298.199995) scale(-1, 1) translate(-53.199999, -298.199995) translate(0.000000, 176.399997)">
                        <path d="M53.4976497,24.5882568 L48.6705916,19.6610768 C48.6705916,19.6610768 52.9723839,15.5723653 52.8673307,8.96690239 C52.7622776,2.36143952 42.9007486,1.83790141 38.7040095,4.14469916 C34.5059235,6.45015105 29.7866122,13.2655675 29.7866122,13.2655675 L33.3530323,13.2655675 L32.5139539,21.7565751 L38.7040095,20.708153 L41.6414575,31.1923738 L53.4976497,24.5882568 Z" id="Fill-57" fill="#FFCDA8"></path>
                        <path d="M35.8717493,6.24046663 L33.353167,13.2658367 L29.4433038,13.2658367 C29.4433038,13.2658367 33.6615923,7.96181688 35.8717493,6.24046663" id="Fill-59" fill="#E74B73"></path>
                        <path d="M39.3453725,3.83663264 L37.0018789,12.6869839 C37.0018789,12.6869839 38.088775,9.13661487 40.552137,9.75301707 C43.0168458,10.3694193 39.8275396,15.8726258 39.8275396,15.8726258 L51.6123495,15.1889308 C51.6123495,15.1889308 54.0487748,12.3962789 53.4979191,6.96574861 C52.9457166,1.53521832 43.5246028,-0.276304305 39.6106991,0.737125512 C35.6967953,1.75190119 35.8718839,2.11393654 35.8718839,2.11393654 L39.3453725,3.83663264 Z" id="Fill-61" fill="#4F4DB8"></path>
                        <path d="M41.6417269,31.1927776 L54.5417165,23.1405192 L59.5303949,30.0541831 C59.5303949,30.0541831 80.1288959,26.2077257 84.1518933,27.1673213 C88.1762375,28.125571 107.648784,55.6227617 106.037969,57.7142224 C104.429847,59.8056832 89.6240856,63.6642533 89.6240856,63.6642533 L94.4524905,86.3392407 L46.1724812,100.651077 L46.1724812,75.564315 C46.1724812,75.564315 32.655641,106.439605 28.4710233,108.370909 C24.2864057,110.299521 20.9071956,104.992809 19.1374539,99.0427786 C17.3677121,93.0927478 6.74522115,59.161018 6.74522115,59.161018 L12.0557932,55.9457672 L24.4466791,74.1175194 C24.4466791,74.1175194 26.2177677,57.2324059 27.6669626,55.1409451 C29.1148106,53.0508303 44.7246332,40.1857896 44.7246332,40.1857896 L41.6417269,31.1927776 Z" id="Fill-63" fill="#0095F9"></path>
                        <path d="M10.679058,56.7797944 L9.18407073,54.413779 C9.18407073,54.413779 11.4481011,50.0976177 8.93221251,49.5956133 C6.41632394,49.092263 4.65331638,49.0505415 4.65331638,49.0505415 C4.65331638,49.0505415 8.03656695,50.0558962 7.66753405,51.2294829 C7.29580747,52.4030696 1.5515544,50.0141746 0.922582263,49.804221 C0.292263286,49.5956133 0.795979733,55.1688044 2.17917971,55.8403867 C3.56372652,56.5106231 6.4984809,55.1688044 6.4984809,55.1688044 L7.89245556,58.4674982 L10.679058,56.7797944 Z" id="Fill-65" fill="#FFCDA8"></path>
                        <path d="M92.2362729,86.9957495 L106.132921,231.188105 L84.7761515,234.521791 L74.2964251,119.28688 L69.5313213,121.611174 L64.7662176,234.521791 C64.7662176,234.521791 48.9099242,236.902611 35.8698637,234.521791 L49.6668457,99.6158443 L92.2362729,86.9957495 Z" id="Fill-67" fill="#40305F"></path>
                        <polygon id="Fill-69" fill="#40305F" points="45.9532164 235.527684 38.2291153 243.020066 54.1083049 239.273202 56.2538137 237.873512 56.2538137 240.232798 60.1165377 239.273202 60.1165377 235.055289"></polygon>
                        <polygon id="Fill-72" fill="#40305F" points="92.1507488 233.370815 80.9316098 241.947957 96.797331 235.055827 98.7421614 237.015394 102.819032 235.580711 102.819032 230.797538"></polygon>
                    </g>
                </g>
            </g>
        </g>
    </g>
</svg>