<?xml version="1.0" encoding="UTF-8"?>
<svg width="142px" height="211px" viewBox="0 0 142 211" version="1.1" xmlns="http://www.w3.org/2000/svg" xmlns:xlink="http://www.w3.org/1999/xlink">
    <!-- Generator: Sketch 55 (78076) - https://sketchapp.com -->
    <title>Group 10</title>
    <desc>Created with Sketch.</desc>
    <g id="Fliply" stroke="none" stroke-width="1" fill="none" fill-rule="evenodd">
        <g id="Landing-Screen" transform="translate(-1063.000000, -629.000000)">
            <g id="Group-23" transform="translate(234.000000, 520.000000)">
                <g id="Group-21">
                    <g id="Group-10" transform="translate(829.499986, 109.199998)">
                        <path d="M71.470413,41.1326686 C71.1553053,41.6543415 45.9114567,63.4910169 45.9114567,63.4910169 L15.0296277,57.3147146 L10.6423591,60.8648826 L40.4921148,78.7908829 L78.7859911,51.2805713 L71.470413,41.1326686 Z" id="Fill-74" fill="#713BCB"></path>
                        <path d="M98.4866002,26.4145447 C98.4866002,26.4145447 86.2458785,30.4064211 86.5265412,28.7665151 C86.9130904,26.498317 77.1957816,1.85403304 68.5488185,5.26965768 C63.2226056,7.37284981 63.9638103,13.3739919 64.8951002,16.6525346 C65.8263901,19.9310773 69.7658741,26.4868935 69.7658741,26.4868935 L74.8509722,15.8681214 C74.8509722,15.8681214 78.2890905,28.6230868 76.2836278,31.9016295 C74.2781651,35.178903 72.9182267,38.1007788 72.9182267,38.1007788 C72.9182267,38.1007788 75.0550906,42.3769733 81.3279023,39.3840179 C87.5994383,36.3910626 98.4866002,26.4145447 98.4866002,26.4145447" id="Fill-76" fill="#FFCDA8"></path>
                        <path d="M98.4871105,26.2539811 C98.4871105,26.2539811 101.120237,25.5444552 102.950923,29.8980756 C104.782886,34.251696 122.895837,71.0036141 122.895837,71.0036141 C122.895837,71.0036141 95.319449,80.4191115 95.319449,80.1157543 C95.319449,79.8123971 83.9219912,66.04201 83.9219912,66.04201 L65.9174779,82.5527663 C63.4272342,84.8361958 59.8373029,85.4873349 56.6964319,84.2282121 L12.8262978,66.6271467 L15.0295001,61.9930161 L59.6548721,68.8724979 C63.2397005,69.4233641 66.7964625,67.7225328 68.6016341,64.5937648 L75.4753192,52.6777915 L72.021892,48.3838271 C70.1835512,46.0953205 69.9679512,42.9119736 71.4835299,40.4000743 L73.2376719,37.4908912 C73.2376719,37.4908912 77.1031629,41.136255 81.98797,39.2120309 C86.872777,37.2890761 86.0805427,29.400519 86.0805427,29.400519 L98.4871105,26.2539811 Z" id="Fill-78" fill="#8F68D0"></path>
                        <path d="M13.5464528,59.4280609 C13.5464528,59.4280609 14.0656788,56.0263983 12.751667,54.3369905 C11.4363795,52.6475827 9.96545166,51.8860165 9.96545166,51.8860165 L11.8063439,56.1355562 L4.47977128,50.9581749 C4.47977128,50.9581749 6.12292392,56.244714 7.60150614,58.0432796 C9.08136411,59.8431145 10.8890872,61.3675163 10.8890872,61.3675163 L13.5464528,59.4280609 Z" id="Fill-80" fill="#FFCDA8"></path>
                        <path d="M14.3525927,62.8950913 C14.3525927,62.8950913 11.2920933,60.9873678 9.06337618,60.9873678 C6.83465906,60.9873678 6.61650758,61.3681509 6.61650758,61.3681509 L10.4845501,62.3493021 C10.4845501,62.3493021 0.644770403,62.1309865 0.262048516,61.9405949 C-0.12194911,61.7502033 3.8226378,65.3486039 6.50679397,65.294025 C9.19095014,65.2394461 14.3525927,63.984131 14.3525927,63.984131 L14.3525927,62.8950913 Z" id="Fill-82" fill="#FFCDA8"></path>
                        <path d="M66.9325839,5.88411472 C66.9325839,5.88411472 69.1842644,11.1452682 71.47932,10.9688387 C73.7756513,10.7936785 74.761798,9.69448453 74.761798,9.69448453 C74.761798,9.69448453 77.0096512,9.70083092 76.5401791,12.092149 C76.0719826,14.4821977 75.099869,15.010217 75.099869,15.010217 L81.9863115,21.8617747 L83.2237789,17.1184862 C83.2237789,17.1184862 86.3136203,3.76569126 80.3087139,1.30710154 C74.3050832,-1.15402673 66.5345532,2.29206056 66.9325839,5.88411472" id="Fill-84" fill="#221A33"></path>
                        <path d="M82.6930713,17.7340856 L85.4308085,22.6956897 C85.4308085,22.6956897 88.7860037,15.7121272 104.413814,17.7340856 C120.041624,19.7547747 117.481215,36.2794931 113.684614,40.4477991 C109.888013,44.6148357 110.347279,44.1236255 110.347279,44.1236255 L102.382837,27.8362619 C102.382837,27.8362619 100.970593,24.6732234 97.1739917,25.7279927 C93.3773906,26.7814927 86.1235351,28.9709957 86.1235351,28.9709957 L84.0185647,24.9410409 L82.1100582,21.3896036 L82.6930713,17.7340856 Z" id="Fill-86" fill="#221A33"></path>
                        <path d="M122.323795,69.7335754 L128.349113,78.7911367 C128.349113,78.7911367 146.010453,107.182327 140.031061,114.653292 C134.050394,122.124256 105.543992,121.875478 96.2259896,122.760164 C86.9092631,123.647389 85.2405957,124.507959 85.2405957,124.507959 C85.2405957,124.507959 91.6371542,130.392327 88.1607637,149.710725 C84.6843732,169.027853 87.6045412,192.548826 87.1873744,192.96388 C86.7702075,193.378934 65.6324777,144.953474 65.6324777,144.953474 C65.6324777,144.953474 60.0702529,149.935387 51.7269158,168.75115 C43.3835787,187.566914 31.5625753,205.000435 31.5625753,205.000435 L57.7063074,105.935897 L57.326137,103.041945 C56.6168258,97.6310165 60.4925228,92.685913 65.9412067,92.0500052 C77.272326,90.7286877 94.3264133,88.7473462 94.6963778,88.7613082 C95.2526003,88.7803474 95.3189387,78.8469849 95.3189387,78.8469849 L122.323795,69.7335754 Z" id="Fill-88" fill="#40305F"></path>
                        <path d="M64.2378391,13.6063965 C64.1408829,13.7206315 66.6438841,20.8031976 66.6438841,20.8031976 L63.9112498,22.2006717 L64.2378391,13.6063965 Z" id="Fill-90" fill="#E74B73"></path>
                        <path d="M122.323795,69.7335754 C122.323795,69.7335754 118.344763,86.1922914 95.3189387,80.116262 L91.7685554,75.5976356 L122.323795,69.7335754 Z" id="Fill-92" fill="#E74B73"></path>
                        <polygon id="Fill-94" fill="#40305F" points="72.3207978 160.20295 87.2737419 155.836637 89.8443573 191.828258 91.5576756 192.574593 90.1658437 208.015348"></polygon>
                        <polygon id="Fill-96" fill="#40305F" points="57.7059247 105.936404 65.632095 144.952713 44.5020196 187.231063 46.7422184 192.385597 28.1266258 210.142784"></polygon>
                    </g>
                </g>
            </g>
        </g>
    </g>
</svg>