<?xml version="1.0" encoding="UTF-8"?>
<svg width="40px" height="32px" viewBox="0 0 40 32" version="1.1" xmlns="http://www.w3.org/2000/svg" xmlns:xlink="http://www.w3.org/1999/xlink">
    <!-- Generator: Sketch 55 (78076) - https://sketchapp.com -->
    <title>icons8-to_do</title>
    <desc>Created with Sketch.</desc>
    <g id="Fliply" stroke="none" stroke-width="1" fill="none" fill-rule="evenodd">
        <g id="Landing-Screen" transform="translate(-600.000000, -2345.000000)" fill="#FFFFFF" fill-rule="nonzero">
            <g id="Group-7" transform="translate(0.000000, 2072.000000)">
                <g id="Group-6-Copy-2" transform="translate(535.000000, 243.000000)">
                    <g id="icons8-to_do" transform="translate(65.000000, 30.000000)">
                        <path d="M7.171875,0.828125 C6.660125,0.828125 6.1488126,1.0230624 5.7578124,1.4140624 L3.171875,4 L2,4 C0.896,4 0,4.896 0,6 C0,7.104 0.896,8 2,8 L4,8 C4.53,8 5.0400624,7.7900624 5.4140624,7.4140624 L8.5859376,4.2421876 C9.3679374,3.4621874 9.3679376,2.1960626 8.5859376,1.4140624 C8.1959376,1.0230624 7.683625,0.828125 7.171875,0.828125 Z M16,4 C14.896,4 14,4.896 14,6 C14,7.104 14.896,8 16,8 L38,8 C39.104,8 40,7.104 40,6 C40,4.896 39.104,4 38,4 L16,4 Z M7.171875,12.828125 C6.660125,12.828125 6.1488126,13.0230626 5.7578124,13.4140624 L3.171875,16 L2,16 C0.896,16 0,16.896 0,18 C0,19.104 0.896,20 2,20 L4,20 C4.53,20 5.0400624,19.790062 5.4140624,19.414062 L8.5859376,16.242188 C9.3679374,15.462188 9.3679376,14.196062 8.5859376,13.4140624 C8.1959376,13.0230624 7.683625,12.828125 7.171875,12.828125 Z M16,16 C14.896,16 14,16.896 14,18 C14,19.104 14.896,20 16,20 L38,20 C39.104,20 40,19.104 40,18 C40,16.896 39.104,16 38,16 L16,16 Z M7.171875,24.828124 C6.660125,24.828124 6.1488126,25.023062 5.7578124,25.414062 L3.171875,28 L2,28 C0.896,28 0,28.896 0,30 C0,31.104 0.896,32 2,32 L4,32 C4.53,32 5.0400624,31.790062 5.4140624,31.414062 L8.5859376,28.242188 C9.3679374,27.462188 9.3679376,26.196062 8.5859376,25.414062 C8.1959376,25.023062 7.683625,24.828124 7.171875,24.828124 Z M16,28 C14.896,28 14,28.896 14,30 C14,31.104 14.896,32 16,32 L38,32 C39.104,32 40,31.104 40,30 C40,28.896 39.104,28 38,28 L16,28 Z" id="Shape"></path>
                    </g>
                </g>
            </g>
        </g>
    </g>
</svg>