<?xml version="1.0" encoding="UTF-8"?>
<svg width="14px" height="14px" viewBox="0 0 14 14" version="1.1" xmlns="http://www.w3.org/2000/svg" xmlns:xlink="http://www.w3.org/1999/xlink">
    <!-- Generator: Sketch 55 (78076) - https://sketchapp.com -->
    <title>icons8-twitter</title>
    <desc>Created with Sketch.</desc>
    <g id="Fliply" stroke="none" stroke-width="1" fill="none" fill-rule="evenodd">
        <g id="Landing-Screen" transform="translate(-813.000000, -1693.000000)" fill="#0074E4" fill-rule="nonzero">
            <g id="Group-29" transform="translate(172.000000, 1459.000000)">
                <g id="Group-26" transform="translate(639.999962, 85.199995)">
                    <g id="Group-15" transform="translate(1.000000, 113.199993)">
                        <g id="Group-14" transform="translate(0.000000, 34.999998)">
                            <g id="icons8-twitter" transform="translate(0.000038, 0.600014)">
                                <path d="M10.8888889,0 L3.11111111,0 C1.393,0 0,1.393 0,3.11111111 L0,10.8888889 C0,12.607 1.393,14 3.11111111,14 L10.8888889,14 C12.607,14 14,12.607 14,10.8888889 L14,3.11111111 C14,1.393 12.607,0 10.8888889,0 Z M10.9277778,5.06644444 C10.9277778,5.13333333 10.9277778,5.19944444 10.9277778,5.33322222 C10.9277778,7.86644444 8.99422222,10.8002222 5.46077778,10.8002222 C4.39444444,10.8002222 3.39422222,10.4665556 2.52777778,9.93377778 C2.66077778,9.93377778 2.86144444,9.93377778 2.99444444,9.93377778 C3.86088889,9.93377778 4.72811111,9.60011111 5.39466667,9.13344444 C4.52822222,9.13344444 3.86166667,8.53377778 3.59488889,7.80033333 C3.72788889,7.80033333 3.86166667,7.86722222 3.92855556,7.86722222 C4.12844444,7.86722222 4.26222222,7.86722222 4.46211111,7.80033333 C3.59566667,7.60044444 2.92911111,6.867 2.92911111,5.93366667 C3.19588889,6.06666667 3.46266667,6.13355556 3.79555556,6.20044444 C3.262,5.73377778 2.92911111,5.20022222 2.92911111,4.53366667 C2.92911111,4.2 2.996,3.86711111 3.19588889,3.60033333 C4.12922222,4.73355556 5.52922222,5.53388889 7.12911111,5.6 C7.12911111,5.467 7.06222222,5.33322222 7.06222222,5.13333333 C7.06222222,4.067 7.92866667,3.19977778 8.99577778,3.19977778 C9.52933333,3.19977778 10.0621111,3.39966667 10.3957778,3.79944444 C10.8624444,3.73255556 11.2622222,3.53266667 11.5958889,3.33277778 C11.4628889,3.79944444 11.1292222,4.13311111 10.7294444,4.39911111 C11.1292222,4.33222222 11.4628889,4.26611111 11.8626667,4.06544444 C11.5943333,4.46677778 11.2614444,4.79966667 10.9277778,5.06644444 Z" id="Shape"></path>
                            </g>
                        </g>
                    </g>
                </g>
            </g>
        </g>
    </g>
</svg>