<?xml version="1.0" encoding="UTF-8"?>
<svg width="44px" height="40px" viewBox="0 0 44 40" version="1.1" xmlns="http://www.w3.org/2000/svg" xmlns:xlink="http://www.w3.org/1999/xlink">
    <!-- Generator: Sketch 55 (78076) - https://sketchapp.com -->
    <title>idea</title>
    <desc>Created with Sketch.</desc>
    <g id="Fliply" stroke="none" stroke-width="1" fill="none" fill-rule="evenodd">
        <g id="Landing-Screen" transform="translate(-567.000000, -2865.000000)" fill="#0074E4">
            <g id="final-features" transform="translate(134.000000, 2687.000000)">
                <g id="Group-35">
                    <g id="Group-33" transform="translate(0.000000, 159.000000)">
                        <g id="Group-15" transform="translate(416.000000, 0.000000)">
                            <g id="Group-32">
                                <g id="idea" transform="translate(17.000000, 19.000000)">
                                    <path d="M26.9187766,31.5480597 L16.2872577,31.5480597 L16.2872577,30.8483582 C16.2872577,28.771194 15.540921,26.750597 14.1291409,24.9644776 C12.4805773,22.8810448 11.7682612,20.2741791 12.1240412,17.6240299 C12.7102543,13.2520896 16.3618007,9.71970149 20.8050447,9.22432836 C23.628,8.91014925 26.4616907,9.79313433 28.5659794,11.6485075 C30.6723849,13.5053731 31.8801924,16.168806 31.8801924,18.9547761 C31.8801924,21.1914925 31.1338557,23.2973134 29.7220756,25.0443284 C28.3718351,26.7171642 27.6276151,28.7635821 27.6276151,30.8050746 L27.6276151,31.5047761 L26.9187766,31.5480597 Z" id="Path" opacity="0.200000003"></path>
                                    <path d="M43.9150241,9.72238806 L43.0921787,5.66179104 L38.9678213,5.66179104 L38.9678213,7.06104478 L41.0367285,7.06104478 L38.4773196,10.2192537 C38.3383643,9.94149254 38.2051546,9.66089552 38.0527423,9.39089552 L36.815299,10.0744776 C37.0647835,10.5144776 37.2894708,10.9686567 37.4970722,11.4289552 L36.7393952,12.3637313 L32.469732,8.85089552 L27.2886186,15.6701493 C26.9555189,15.5337313 26.5918763,15.4567164 26.2099381,15.4567164 C24.6463505,15.4567164 23.3748866,16.711791 23.3748866,18.2552239 L23.3748866,19.6544776 L20.5398351,19.6544776 L20.5398351,18.2552239 C20.5398351,16.711791 19.2683711,15.4567164 17.7047835,15.4567164 C17.3226942,15.4567164 16.9592027,15.5337313 16.6261031,15.669403 L11.4451409,8.85 L7.17547766,12.3628358 L6.41916151,11.4295522 C6.63462543,10.9523881 6.86641924,10.4814925 7.12573196,10.0268657 L5.89101031,9.34119403 C5.72801375,9.62671642 5.58482474,9.92402985 5.43740206,10.2185075 L2.87829553,7.06104478 L4.94720275,7.06104478 L4.94720275,5.66179104 L0.822845361,5.66179104 L0,9.72238806 L1.38985567,9.99731343 L1.80021993,7.97119403 L4.79191753,11.6625373 C4.74232302,11.7877612 4.68350515,11.908806 4.6366323,12.0347761 L5.28090722,12.2664179 L6.97195876,14.3526866 L11.2074502,10.8692537 L15.4997938,16.518806 C15.111354,16.9973134 14.869732,17.5955224 14.869732,18.2552239 C14.869732,19.7986567 16.1411959,21.0537313 17.7047835,21.0537313 L19.1223093,21.0537313 L19.1223093,30.1489552 L16.2872577,30.1489552 C15.1149828,30.1489552 14.1608935,31.090597 14.1608935,32.2479104 C14.1608935,32.6985075 14.3083162,33.1140299 14.554323,33.4561194 L13.9738557,34.6497015 C14.267945,34.7897015 14.5706529,34.9092537 14.8710928,35.0323881 C14.8710928,35.0373134 14.869732,35.0414925 14.869732,35.0464179 C14.869732,35.7914925 15.268,36.4435821 15.8626804,36.8158209 C15.6868316,37.1214925 15.5784192,37.4692537 15.5784192,37.8449254 C15.5784192,39.0020896 16.5323574,39.9438806 17.7047835,39.9438806 L26.2099381,39.9438806 C27.3822131,39.9438806 28.3363024,39.0022388 28.3363024,37.8449254 C28.3363024,37.4692537 28.22789,37.1214925 28.0520412,36.8158209 C28.6467216,36.4435821 29.0449897,35.7916418 29.0449897,35.0464179 C29.0449897,35.0414925 29.0436289,35.0373134 29.0436289,35.0323881 C29.3442199,34.9085075 29.6460206,34.7895522 29.940866,34.6497015 L29.3603986,33.4561194 C29.6064055,33.1140299 29.7538282,32.6983582 29.7538282,32.2479104 C29.7538282,31.0907463 28.79989,30.1489552 27.6274639,30.1489552 L24.7924124,30.1489552 L24.7924124,21.0535821 L26.2099381,21.0535821 C27.7735258,21.0535821 29.0449897,19.7985075 29.0449897,18.2550746 C29.0449897,17.5953731 28.8033677,16.9971642 28.4155326,16.5179104 L32.7077251,10.8683582 L36.9432165,14.351791 L38.564866,12.3508955 L39.2991065,12.09 C39.2466392,11.9458209 39.179354,11.8059701 39.1226529,11.6625373 L42.1151065,7.97134328 L42.5254708,9.99746269 L43.9150241,9.72238806 Z M17.7049347,19.6543284 C16.9232165,19.6543284 16.2874089,19.0267164 16.2874089,18.2550746 C16.2874089,18.0598507 16.3285361,17.8744776 16.4021718,17.7058209 L17.1379244,18.6747761 L18.271945,17.8359701 L17.5398213,16.8725373 C17.5951615,16.8655224 17.6482337,16.8558209 17.7049347,16.8558209 C18.4866529,16.8558209 19.1224605,17.4834328 19.1224605,18.2550746 L19.1224605,19.6543284 L17.7049347,19.6543284 L17.7049347,19.6543284 Z M27.6276151,35.0461194 C27.6276151,35.4322388 27.3100893,35.7458209 26.9187766,35.7458209 L26.2099381,35.7458209 L17.7047835,35.7458209 L16.995945,35.7458209 C16.6046323,35.7458209 16.2871065,35.4323881 16.2871065,35.0461194 C16.2871065,34.66 16.6046323,34.3464179 16.995945,34.3464179 L26.9186254,34.3464179 C27.3100893,34.3465672 27.6276151,34.66 27.6276151,35.0461194 Z M26.2100893,38.5443284 L17.7049347,38.5443284 C17.313622,38.5443284 16.9960962,38.2308955 16.9960962,37.8446269 C16.9960962,37.4583582 17.313622,37.1449254 17.7049347,37.1449254 L26.2100893,37.1449254 C26.6012509,37.1449254 26.9189278,37.4583582 26.9189278,37.8446269 C26.9189278,38.2308955 26.6012509,38.5443284 26.2100893,38.5443284 Z M28.3363024,32.2476119 C28.3363024,32.6337313 28.0187766,32.9473134 27.6274639,32.9473134 L26.9186254,32.9473134 L16.995945,32.9473134 L16.2871065,32.9473134 C15.8957938,32.9473134 15.578268,32.6338806 15.578268,32.2476119 C15.578268,31.8614925 15.8957938,31.5479104 16.2871065,31.5479104 L27.6273127,31.5479104 C28.0187766,31.5480597 28.3363024,31.8614925 28.3363024,32.2476119 Z M20.5399863,30.148806 L20.5399863,21.0535821 L23.3750378,21.0535821 L23.3750378,30.148806 L20.5399863,30.148806 Z M27.6276151,18.2550746 C27.6276151,19.0267164 26.9918076,19.6543284 26.2100893,19.6543284 L24.7925636,19.6543284 L24.7925636,18.2550746 C24.7925636,17.4834328 25.4283711,16.8558209 26.2100893,16.8558209 C26.2667904,16.8558209 26.3200137,16.8656716 26.3752027,16.8725373 L25.643079,17.8352239 L26.7770997,18.6740299 L27.513457,17.7050746 C27.586488,17.8744776 27.6276151,18.0598507 27.6276151,18.2550746 Z" id="Shape" fill-rule="nonzero"></path>
                                    <path d="M15.2348866,2.82626866 L14.6742268,1.54164179 C13.7556701,1.93208955 12.8626667,2.40074627 12.0206186,2.93313433 L12.7861581,4.11134328 C13.5628866,3.61955224 14.386488,3.18716418 15.2348866,2.82626866 Z" id="Path"></path>
                                    <path d="M20.5980481,1.51656716 L20.4875189,0.121492537 C19.4861031,0.199104478 18.4887698,0.359402985 17.5213746,0.595820896 L17.8636976,1.95373134 C18.7538282,1.73552239 19.6745017,1.58865672 20.5980481,1.51656716 Z" id="Path"></path>
                                    <path d="M10.5817732,5.77089552 L9.63342955,4.73119403 C8.89208247,5.38880597 8.19957388,6.11432836 7.57238488,6.88462687 L8.6787354,7.76059701 C9.25708591,7.04776119 9.89712715,6.37895522 10.5817732,5.77089552 Z" id="Path"></path>
                                    <path d="M5.11156014,20.6050746 L3.70824742,20.798806 C3.84720275,21.7789552 4.06901718,22.7528358 4.36734021,23.6931343 L5.71969759,23.2747761 C5.44465979,22.408806 5.24053608,21.5097015 5.11156014,20.6050746 Z" id="Path"></path>
                                    <path d="M31.9418832,2.96477612 C31.0998351,2.42746269 30.2097045,1.95731343 29.2946254,1.56552239 L28.729732,2.84865672 C29.5738969,3.21029851 30.3959863,3.64477612 31.17211,4.14014925 L31.9418832,2.96477612 Z" id="Path"></path>
                                    <path d="M26.4511065,0.609104478 C25.4829553,0.369104478 24.486378,0.206865672 23.4884399,0.125671642 L23.3721649,1.52074627 C24.2928385,1.59492537 25.212756,1.74537313 26.1059107,1.96641791 L26.4511065,0.609104478 Z" id="Path"></path>
                                    <path d="M35.2687973,7.80059701 L36.3772646,6.92880597 C35.7556701,6.15776119 35.0639175,5.43089552 34.3233265,4.76761194 L33.3707491,5.80447761 C34.056,6.41671642 34.6946804,7.08835821 35.2687973,7.80059701 Z" id="Path"></path>
                                    <path d="M38.1782405,23.3274627 L39.5290859,23.75 C39.8310378,22.8089552 40.0563299,21.8365672 40.1981581,20.8585075 L38.7948454,20.6604478 C38.6637526,21.5622388 38.456,22.4598507 38.1782405,23.3274627 Z" id="Path"></path>
                                    <path d="M38.6877938,15.2040299 C38.8529072,16.098806 38.9465017,17.0153731 38.9641924,17.9283582 L40.3817182,17.9010448 C40.3625155,16.9138806 40.2619656,15.921791 40.0818832,14.9528358 L38.6877938,15.2040299 Z" id="Path"></path>
                                    <path d="M35.672055,28.1870149 L36.8139381,29.0167164 C37.4078625,28.2191045 37.9387354,27.3698507 38.3915876,26.4931343 L37.1285911,25.8579104 C36.7096082,26.6674627 36.2198625,27.4516418 35.672055,28.1870149 Z" id="Path"></path>
                                    <path d="M31.7185567,32.0028358 L32.5321787,33.1480597 C33.3529072,32.58 34.1303918,31.9425373 34.8434639,31.2528358 L33.8511203,30.2537313 C33.1941443,30.8902985 32.4762337,31.4780597 31.7185567,32.0028358 Z" id="Path"></path>
                                    <path d="M5.49863918,26.4420896 C5.95013058,27.3229851 6.47813058,28.1737313 7.06782131,28.970597 L8.21242612,28.1450746 C7.66734021,27.4083582 7.17971134,26.6234328 6.76375258,25.8104478 L5.49863918,26.4420896 Z" id="Path"></path>
                                    <path d="M5.23705842,15.1508955 L3.84296907,14.8941791 C3.66076976,15.8597015 3.55659107,16.8510448 3.53330584,17.8423881 L4.95083162,17.8738806 C4.972,16.9580597 5.06831615,16.0414925 5.23705842,15.1508955 Z" id="Path"></path>
                                    <path d="M9.03028179,31.2143284 C9.73972509,31.9028358 10.514488,32.5429851 11.3330997,33.1159701 L12.1524674,31.9734328 C11.3955464,31.4444776 10.6796014,30.8532836 10.0254983,30.2167164 L9.03028179,31.2143284 Z" id="Path"></path>
                                </g>
                            </g>
                        </g>
                    </g>
                </g>
            </g>
        </g>
    </g>
</svg>