<?xml version="1.0" encoding="UTF-8"?>
<svg width="135px" height="24px" viewBox="0 0 135 24" version="1.1" xmlns="http://www.w3.org/2000/svg" xmlns:xlink="http://www.w3.org/1999/xlink">
    <!-- Generator: Sketch 55 (78076) - https://sketchapp.com -->
    <title>Typography Logo/Pebble Purple</title>
    <desc>Created with Sketch.</desc>
    <g id="Fliply" stroke="none" stroke-width="1" fill="none" fill-rule="evenodd">
        <g id="Landing-Screen" transform="translate(-135.000000, -80.000000)" fill="#000000">
            <g id="Typography-Logo/Pebble-Purple" transform="translate(135.000000, 80.000000)">
                <g id="Text">
                    <path d="M92.9354045,6.21960784 L92.9354045,8.91779259 C94.4956037,7.11899376 96.3394478,6.21960784 98.4669922,6.21960784 L98.6306486,6.21960784 L98.6306486,8.83602941 L98.4669922,8.83602941 C96.9395244,8.83602941 95.6357411,9.44652167 94.5556032,10.6675245 C93.4754653,12.1065636 92.9354045,13.6873025 92.9354045,15.4097886 L92.9354045,23.9622166 L90.3169014,23.9622166 L90.3169014,6.21960784 L92.9354045,6.21960784 Z" id="R" opacity="0.5"></path>
                    <path d="M57.7387266,23.4332827 L59.169388,20.0883026 L59.1756748,20.1029948 L65.1164036,6.21960784 L67.9640257,6.21960784 L60.3703668,23.9622166 L57.9646172,23.9622166 L57.7387266,23.4332827 Z M56.6012811,20.7698975 L50.3873239,6.21960784 L53.234946,6.21960784 L58.1059878,17.6031535 L56.6012811,20.7698975 Z" id="Combined-Shape" opacity="0.5"></path>
                    <polygon id="L" points="44.2077465 23.8748468 44.2077465 0 46.8262495 0 46.8262495 23.8748468"></polygon>
                    <path d="M37.8473985,6.11588542 L40.4659016,6.11588542 L40.4659016,23.8584942 L37.8473985,23.8584942 L37.8473985,6.11588542 Z M39.1402844,0 C39.5876142,0 39.9640203,0.155348477 40.2695138,0.466050092 C40.5750074,0.776751707 40.7277519,1.15013313 40.7277519,1.58620558 C40.7277519,2.02227802 40.5750074,2.39565945 40.2695138,2.70636106 C39.9640203,3.01706267 39.5876142,3.17241115 39.1402844,3.17241115 C38.703865,3.17241115 38.3301866,3.01706267 38.0192378,2.70636106 C37.708289,2.39565945 37.5528169,2.02227802 37.5528169,1.58620558 C37.5528169,1.15013313 37.708289,0.776751707 38.0192378,0.466050092 C38.3301866,0.155348477 38.703865,0 39.1402844,0 Z" id="I"></path>
                    <path d="M17.8058208,5.92105545 L17.8058208,23.6636642 L15.1382208,23.6636642 L15.1382208,21.2598269 C13.4034538,22.982313 11.330493,23.8435432 8.91927604,23.8435432 C6.45350666,23.8435432 4.34781485,22.9605097 2.60213741,21.1944164 C0.867370464,19.4174212 1.10134124e-13,17.2861491 1.10134124e-13,14.8005362 C1.10134124e-13,12.3040214 0.867370464,10.1672985 2.60213741,8.39030331 C4.34781485,6.62420992 6.45350666,5.74117647 8.91927604,5.74117647 C11.330493,5.74117647 13.4034538,6.60785745 15.1382208,8.3412454 L15.1382208,5.92105545 L17.8058208,5.92105545 Z M8.91927604,21.1780637 C10.632222,21.1780637 12.0942049,20.551219 13.3052687,19.2975107 C14.5272429,18.0547043 15.1382208,16.5557277 15.1382208,14.8005362 L15.1382208,14.7841835 C15.1382208,13.0289919 14.5272429,11.5300154 13.3052687,10.2872089 C12.0942049,9.03350068 10.632222,8.40665594 8.91927604,8.40665594 C7.19541957,8.40665594 5.72252633,9.03350068 4.50055213,10.2872089 C3.27857793,11.5409172 2.66759999,13.0453446 2.66759999,14.8005362 C2.66759999,16.5557277 3.27857793,18.0547043 4.50055213,19.2975107 C5.72252633,20.551219 7.19541957,21.1780637 8.91927604,21.1780637 Z" id="A"></path>
                    <path d="M125.855896,5.74117647 C128.299844,5.74117647 130.394626,6.62420992 132.140303,8.39030331 C133.87507,10.1672985 134.742441,12.3040214 134.742441,14.8005362 L134.742441,16.1414522 L119.735145,16.1414522 C120.040638,17.5913931 120.76072,18.7905743 121.89541,19.7390319 C123.041011,20.6983912 124.361159,21.1780637 125.855896,21.1780637 C127.012407,21.1780637 128.087074,20.8728176 129.079928,20.2623162 C130.061871,19.6409129 130.825594,18.8014861 131.371118,17.7440104 L133.760502,18.9541054 C132.985857,20.4694571 131.88937,21.6631875 130.471007,22.5353324 C129.063555,23.4074773 127.5252,23.8435432 125.855896,23.8435432 C123.390126,23.8435432 121.284435,22.9605097 119.538757,21.1944164 C117.80399,19.4174212 116.93662,17.2861491 116.93662,14.8005362 C116.93662,12.3040214 117.80399,10.1672985 119.538757,8.39030331 C121.284435,6.62420992 123.390126,5.74117647 125.855896,5.74117647 Z M119.735145,13.4596201 L131.943915,13.4596201 C131.638422,12.0096792 130.918341,10.810498 129.78365,9.86204044 C128.63805,8.89177926 127.328811,8.40665594 125.855896,8.40665594 C124.361159,8.40665594 123.041011,8.89177926 121.89541,9.86204044 C120.76072,10.810498 120.040638,12.0096792 119.735145,13.4596201 Z" id="E" opacity="0.5"></path>
                    <path d="M78.3206845,5.74117647 C80.7646329,5.74117647 82.8594144,6.62420992 84.6050918,8.39030331 C86.3398588,10.1672985 87.2072292,12.3040214 87.2072292,14.8005362 L87.2072292,16.1414522 L72.1999336,16.1414522 C72.5054271,17.5913931 73.2255083,18.7905743 74.3601986,19.7390319 C75.5057994,20.6983912 76.8259482,21.1780637 78.3206845,21.1780637 C79.4771958,21.1780637 80.5518623,20.8728176 81.5447164,20.2623162 C82.5266599,19.6409129 83.2903824,18.8014861 83.8359066,17.7440104 L86.2252906,18.9541054 C85.4506462,20.4694571 84.354159,21.6631875 82.9357961,22.5353324 C81.5283437,23.4074773 79.9899885,23.8435432 78.3206845,23.8435432 C75.8549151,23.8435432 73.7492233,22.9605097 72.0035459,21.1944164 C70.2687789,19.4174212 69.4014085,17.2861491 69.4014085,14.8005362 C69.4014085,12.3040214 70.2687789,10.1672985 72.0035459,8.39030331 C73.7492233,6.62420992 75.8549151,5.74117647 78.3206845,5.74117647 Z M72.1999336,13.4596201 L84.4087041,13.4596201 C84.1032105,12.0096792 83.3831294,10.810498 82.2484391,9.86204044 C81.1028383,8.89177926 79.7935998,8.40665594 78.3206845,8.40665594 C76.8259482,8.40665594 75.5057994,8.89177926 74.3601986,9.86204044 C73.2255083,10.810498 72.5054271,12.0096792 72.1999336,13.4596201 Z" id="E-Copy" opacity="0.5"></path>
                    <path d="M107.25694,8.40665594 C106.336373,8.40665594 105.543675,8.65739384 104.878821,9.15887714 C104.226753,9.64945864 103.900724,10.2435984 103.900724,10.9413143 C103.900724,11.6608339 104.188396,12.1950146 104.763751,12.5438725 C105.224034,12.8273196 106.189336,13.1380166 107.659686,13.4759727 C109.526391,13.922947 110.862471,14.3971687 111.667967,14.898652 C113.048817,15.7707968 113.739232,17.0244863 113.739232,18.659758 C113.739232,20.0878952 113.106352,21.3088797 111.840572,22.3227482 C110.574793,23.3366166 109.046931,23.8435432 107.25694,23.8435432 C105.466949,23.8435432 103.939087,23.3366166 102.673307,22.3227482 C101.407528,21.3088797 100.774648,20.0878952 100.774648,18.659758 L103.900724,18.659758 C103.900724,19.3574739 104.226753,19.9516137 104.878821,20.4421952 C105.543675,20.9327767 106.336373,21.1780637 107.25694,21.1780637 C108.177507,21.1780637 108.970205,20.9327767 109.635059,20.4421952 C110.287127,19.9516137 110.613156,19.3574739 110.613156,18.659758 C110.613156,17.9184348 110.325483,17.3733524 109.750129,17.0244945 C109.27706,16.7301456 108.298972,16.408547 106.815837,16.059689 C104.961918,15.6236166 103.638623,15.1548457 102.845913,14.6533624 C101.465063,13.7921194 100.774648,12.5547824 100.774648,10.9413143 C100.774648,9.51317709 101.407528,8.28674175 102.673307,7.26197151 C103.939087,6.24810308 105.466949,5.74117647 107.25694,5.74117647 C109.046931,5.74117647 110.574793,6.24810308 111.840572,7.26197151 C113.106352,8.28674175 113.739232,9.51317709 113.739232,10.9413143 L110.613156,10.9413143 C110.613156,10.2435984 110.287127,9.64945864 109.635059,9.15887714 C108.970205,8.65739384 108.177507,8.40665594 107.25694,8.40665594 Z" id="S" opacity="0.5"></path>
                    <path d="M27.8080986,8.41814478 C26.8967681,8.41814478 26.112023,8.66996341 25.4538399,9.17360823 C24.8083141,9.66630425 24.4855561,10.2630049 24.4855561,10.9637281 C24.4855561,11.686349 24.7703426,12.2228321 25.3399242,12.5731938 C25.7955894,12.8578626 26.7512064,13.1698987 28.2068037,13.5093115 C30.0547794,13.9582123 31.3774546,14.434478 32.1748687,14.9381228 C33.5418645,15.8140269 34.2253521,17.07312 34.2253521,18.7154401 C34.2253521,20.1497329 33.5988218,21.3759802 32.3457424,22.3942186 C31.0926629,23.412457 29.5801301,23.9215686 27.8080986,23.9215686 C26.0360671,23.9215686 24.5235343,23.412457 23.2704548,22.3942186 C22.0173754,21.3759802 21.3908451,20.1497329 21.3908451,18.7154401 L24.4855561,18.7154401 C24.4855561,19.4161633 24.8083141,20.012864 25.4538399,20.50556 C26.112023,20.998256 26.8967681,21.2446003 27.8080986,21.2446003 C28.7194291,21.2446003 29.5041741,20.998256 30.1623573,20.50556 C30.8078831,20.012864 31.1306411,19.4161633 31.1306411,18.7154401 C31.1306411,17.9709216 30.8458546,17.4234898 30.276273,17.0731282 C29.8079504,16.7775106 28.8396763,16.4545258 27.3714216,16.1041642 C25.5361032,15.6662122 24.2260853,15.1954209 23.4413284,14.691776 C22.0743327,13.8268208 21.3908451,12.5841506 21.3908451,10.9637281 C21.3908451,9.5294353 22.0173754,8.29771373 23.2704548,7.26852649 C24.5235343,6.25028805 26.0360671,5.74117647 27.8080986,5.74117647 C29.5801301,5.74117647 31.0926629,6.25028805 32.3457424,7.26852649 C33.5988218,8.29771373 34.2253521,9.5294353 34.2253521,10.9637281 L31.1306411,10.9637281 C31.1306411,10.2630049 30.8078831,9.66630425 30.1623573,9.17360823 C29.5041741,8.66996341 28.7194291,8.41814478 27.8080986,8.41814478 Z" id="S-Copy"></path>
                </g>
            </g>
        </g>
    </g>
</svg>