<?xml version="1.0" encoding="UTF-8"?>
<svg width="40px" height="40px" viewBox="0 0 40 40" version="1.1" xmlns="http://www.w3.org/2000/svg" xmlns:xlink="http://www.w3.org/1999/xlink">
    <!-- Generator: Sketch 55 (78076) - https://sketchapp.com -->
    <title>guarantee</title>
    <desc>Created with Sketch.</desc>
    <g id="Fliply" stroke="none" stroke-width="1" fill="none" fill-rule="evenodd">
        <g id="Landing-Screen" transform="translate(-153.000000, -2865.000000)" fill="#0074E4">
            <g id="final-features" transform="translate(134.000000, 2687.000000)">
                <g id="Group-35">
                    <g id="Group-33" transform="translate(0.000000, 159.000000)">
                        <g id="Group-15">
                            <g id="Group-32">
                                <g id="guarantee" transform="translate(19.000000, 19.000000)">
                                    <circle id="Oval" opacity="0.100000001" cx="19.974433" cy="19.9742955" r="14.8196564"></circle>
                                    <path d="M39.9484536,19.9742955 C39.9484536,8.96068729 30.9879038,0 19.974433,0 C16.5529897,0 13.3307216,0.865979381 10.5129897,2.38790378 C6.17154639,0.224879725 3.03683849,-0.0837113402 1.44467354,1.51037801 C-0.289896907,3.24494845 0.376357388,6.65209622 2.34804124,10.5902405 C0.851958763,13.3898282 0.000137457045,16.5844674 0.000137457045,19.9742955 C0.000137457045,30.9877663 8.96082474,39.9485911 19.974433,39.9485911 C23.3609622,39.9485911 26.5517526,39.0986942 29.3494158,37.6052234 C31.6780756,38.7675601 33.8783505,39.5072165 35.6426117,39.5072165 C36.7830928,39.5072165 37.742543,39.2005498 38.4383505,38.504055 C40.0317526,36.9106529 39.7238488,33.7766323 37.5608247,29.4357388 C39.0826117,26.6178694 39.9484536,23.3956014 39.9484536,19.9742955 Z M2.35587629,2.4214433 C3.41003436,1.36728522 5.87065292,1.65209622 9.18378007,3.1785567 C6.75463918,4.7443299 4.68701031,6.82089347 3.13154639,9.25718213 C1.58584192,5.87945017 1.34680412,3.43037801 2.35587629,2.4214433 Z M19.974433,38.6597938 C9.67092784,38.6597938 1.28879725,30.2776632 1.28879725,19.9741581 C1.28879725,17.1165636 1.9356701,14.4083849 3.08714777,11.9844674 C4.81841924,15.0824742 7.24109966,18.412921 9.86941581,21.467079 L7.60591065,21.92 L7.85910653,23.1835052 L11.4229553,22.4709278 L12.8410997,18.9252234 L11.6445361,18.4464605 L10.798488,20.5617869 C7.62584192,16.8769759 5.29910653,13.4806873 3.80618557,10.6262543 C7.04261168,5.04962199 13.0754639,1.28865979 19.974433,1.28865979 C30.2779381,1.28865979 38.6600687,9.67079038 38.6600687,19.9742955 C38.6600687,26.8731271 34.8991065,32.9059794 29.3230241,36.1424055 C27.2437113,35.049622 24.9286598,33.5579381 22.5124399,31.705567 L21.7282474,32.72811 C23.7186254,34.2545704 25.862268,35.7024055 27.95189,36.8672165 C25.531134,38.0148454 22.8266667,38.6597938 19.974433,38.6597938 Z M37.5271478,37.5928522 C36.4478351,38.6721649 33.9426804,38.3221993 30.6870103,36.8196564 C33.1252234,35.2636426 35.2031615,33.1946392 36.7701718,30.7649485 C38.2964948,34.0773883 38.5813058,36.5386942 37.5271478,37.5928522 Z" id="Shape" fill-rule="nonzero"></path>
                                    <path d="M26.417732,24.4845361 C26.417732,21.6423368 24.1052921,19.3298969 21.2630928,19.3298969 L18.6857732,19.3298969 C16.553677,19.3298969 14.8197938,17.5960137 14.8197938,15.4639175 C14.8197938,13.3318213 16.553677,11.5979381 18.6857732,11.5979381 L21.2630928,11.5979381 C23.395189,11.5979381 25.1290722,13.3318213 25.1290722,15.4639175 L25.1290722,16.1083162 L26.417732,16.1083162 L26.417732,15.4639175 C26.417732,12.6217182 24.1052921,10.3092784 21.2630928,10.3092784 L20.6186942,10.3092784 L20.6186942,7.73195876 L19.3300344,7.73195876 L19.3300344,10.3092784 L18.6856357,10.3092784 C15.8434364,10.3092784 13.5309966,12.6217182 13.5309966,15.4639175 C13.5309966,18.3061168 15.8434364,20.6185567 18.6856357,20.6185567 L21.2629553,20.6185567 C23.3950515,20.6185567 25.1289347,22.3524399 25.1289347,24.4845361 C25.1289347,26.6166323 23.3950515,28.3505155 21.2629553,28.3505155 L18.6856357,28.3505155 C16.5535395,28.3505155 14.8196564,26.6166323 14.8196564,24.4845361 L14.8196564,23.8401375 L13.5309966,23.8401375 L13.5309966,24.4845361 C13.5309966,27.3267354 15.8434364,29.6391753 18.6856357,29.6391753 L19.3300344,29.6391753 L19.3300344,32.2164948 L20.6186942,32.2164948 L20.6186942,29.6391753 L21.2630928,29.6391753 C24.1051546,29.6391753 26.417732,27.3267354 26.417732,24.4845361 Z" id="Path"></path>
                                </g>
                            </g>
                        </g>
                    </g>
                </g>
            </g>
        </g>
    </g>
</svg>