<?xml version="1.0" encoding="UTF-8"?>
<svg width="40px" height="40px" viewBox="0 0 40 40" version="1.1" xmlns="http://www.w3.org/2000/svg" xmlns:xlink="http://www.w3.org/1999/xlink">
    <!-- Generator: Sketch 55 (78076) - https://sketchapp.com -->
    <title>market-analysis</title>
    <desc>Created with Sketch.</desc>
    <g id="Fliply" stroke="none" stroke-width="1" fill="none" fill-rule="evenodd">
        <g id="Landing-Screen" transform="translate(-985.000000, -2865.000000)" fill="#0074E4">
            <g id="final-features" transform="translate(134.000000, 2687.000000)">
                <g id="Group-35">
                    <g id="Group-33" transform="translate(0.000000, 159.000000)">
                        <g id="Group-15" transform="translate(832.000000, 0.000000)">
                            <g id="Group-32">
                                <g id="market-analysis" transform="translate(19.000000, 19.000000)">
                                    <path d="M19.9742955,21.2629553 C19.262268,21.2629553 18.6856357,20.686323 18.6856357,19.9742955 C18.6856357,19.262268 19.262268,18.6856357 19.9742955,18.6856357 C20.2101718,18.6856357 20.4285911,18.7539519 20.6186942,18.864055 L20.6186942,0.6604811 C20.4041237,0.653333333 20.1902405,0.644398625 19.9742955,0.644398625 C9.29828179,0.644398625 0.644398625,9.29828179 0.644398625,19.9742955 C0.644398625,30.6503093 9.29841924,39.3041924 19.9742955,39.3041924 C20.1901031,39.3041924 20.4041237,39.2951203 20.6186942,39.28811 L20.6186942,21.0843986 C20.4284536,21.1946392 20.2100344,21.2629553 19.9742955,21.2629553 Z" id="Path" opacity="0.100000001"></path>
                                    <path d="M38.619244,21.2210309 L39.9052921,21.3054296 C39.9336082,20.8659794 39.9484536,20.4175945 39.9484536,19.9742955 L38.6597938,19.9742955 C38.6597938,20.3929897 38.646323,20.8086598 38.619244,21.2210309 Z" id="Path"></path>
                                    <path d="M5.94652921,32.3195876 L4.98006873,33.172646 C5.5561512,33.8247423 6.17718213,34.4438488 6.82735395,35.0127835 L7.67587629,34.0424742 C7.06762887,33.5109278 6.4857732,32.9304467 5.94652921,32.3195876 Z" id="Path"></path>
                                    <path d="M8.8995189,36.5998625 C9.6224055,37.0817869 10.3828179,37.5212371 11.1604124,37.9039175 L11.7300344,36.747354 C11.0026117,36.3891409 10.2912715,35.9793814 9.6147079,35.5270103 L8.8995189,36.5998625 Z" id="Path"></path>
                                    <path d="M13.5741581,38.900756 C14.3950515,39.1784192 15.2442612,39.4046735 16.0980069,39.5727835 L16.3466667,38.3079038 C15.5483162,38.1513402 14.7545017,37.9399313 13.9865292,37.6797251 L13.5741581,38.900756 Z" id="Path"></path>
                                    <path d="M35.5044674,30.3685223 L36.5747079,31.0856357 C37.0580069,30.3646735 37.4986942,29.6042612 37.883299,28.8266667 L36.7286598,28.2551203 C36.3685223,28.9819931 35.9568385,29.6933333 35.5044674,30.3685223 Z" id="Path"></path>
                                    <path d="M1.65402062,23.6713402 L0.390515464,23.9245361 C0.561237113,24.774433 0.789965636,25.6224055 1.07092784,26.4438488 L2.29058419,26.0276289 C2.02776632,25.2584192 1.81319588,24.4658419 1.65402062,23.6713402 Z" id="Path"></path>
                                    <path d="M2.07601375,28.8505842 C2.46130584,29.6263918 2.90268041,30.3854296 3.38721649,31.1051546 L4.45621993,30.3866667 C4.00329897,29.7127148 3.59092784,29.003299 3.23010309,28.2771134 L2.07601375,28.8505842 Z" id="Path"></path>
                                    <path d="M18.76811,38.6211684 L18.6856357,39.9079038 C19.1114777,39.9349828 19.5413058,39.9484536 19.9742955,39.9484536 C20.4156701,39.9484536 20.8602062,39.9342955 21.2938832,39.9059794 L21.2094845,38.6199313 C20.4027491,38.6727148 19.5753952,38.6732646 18.76811,38.6211684 Z" id="Path"></path>
                                    <path d="M37.6662543,26.0012371 L38.8865979,26.4167698 C39.1661856,25.5965636 39.3943643,24.747354 39.5638488,23.8941581 L38.2996564,23.6421993 C38.1411684,24.4401375 37.9278351,25.2332646 37.6662543,26.0012371 Z" id="Path"></path>
                                    <path d="M23.6301031,38.3021306 L23.8813746,39.5656357 C24.7325086,39.3968385 25.5804811,39.1700344 26.4026117,38.8909966 L25.9876289,37.6699656 C25.2196564,37.9316838 24.4265292,38.1436426 23.6301031,38.3021306 Z" id="Path"></path>
                                    <path d="M32.2886598,34.0290034 L33.1378694,34.9980756 C33.7885911,34.4279038 34.4097595,33.8072852 34.9832302,33.1546392 L34.0153952,32.304055 C33.4787629,32.9143643 32.8975945,33.4948454 32.2886598,34.0290034 Z" id="Path"></path>
                                    <path d="M28.2397251,36.737732 L28.8105842,37.8930584 C29.5863918,37.5096907 30.3459794,37.0702405 31.0683162,36.5869416 L30.35189,35.5160137 C29.6758763,35.9678351 28.9652234,36.3788316 28.2397251,36.737732 Z" id="Path"></path>
                                    <path d="M1.28865979,19.9742955 C1.28865979,9.67079038 9.67079038,1.28865979 19.9742955,1.28865979 C23.2893471,1.28865979 26.500756,2.15986254 29.3382818,3.80728522 L27.4665292,4.55601375 L27.9452921,5.75257732 L31.5722337,4.30213058 L31.5722337,0.644398625 L30.2835739,0.644398625 L30.2835739,2.87766323 C27.1764948,0.999312715 23.6353265,0 19.9742955,0 C8.96068729,0 0,8.96068729 0,19.9742955 C0,20.4175945 0.0148453608,20.8659794 0.043161512,21.3048797 L1.32920962,21.2204811 C1.30213058,20.8086598 1.28865979,20.3929897 1.28865979,19.9742955 Z" id="Path"></path>
                                    <path d="M34.1495533,15.4639175 C34.1495533,15.0927835 34.0393127,14.7487285 33.8570447,14.4542955 L37.3872165,8.90721649 C37.5850172,8.97553265 37.7943643,9.02061856 38.0153952,9.02061856 C39.0810997,9.02061856 39.9484536,8.15340206 39.9484536,7.08756014 C39.9484536,6.02171821 39.0812371,5.15463918 38.0155326,5.15463918 C36.9498282,5.15463918 36.0824742,6.02185567 36.0824742,7.08769759 C36.0824742,7.45883162 36.1927148,7.8028866 36.3749828,8.09731959 L32.8446735,13.6443986 C32.6468729,13.5760825 32.4373883,13.5309966 32.2164948,13.5309966 C31.7081787,13.5309966 31.2486598,13.7320962 30.9033677,14.0536082 L28.3234364,12.5058419 C28.3356701,12.4188316 28.3505155,12.3325086 28.3505155,12.2423368 C28.3505155,11.1766323 27.483299,10.3092784 26.417457,10.3092784 C25.3516151,10.3092784 24.4843986,11.1764948 24.4843986,12.2423368 C24.4843986,12.5767698 24.5778694,12.8872852 24.7279725,13.1617869 L20.707354,18.1876289 C20.6790378,18.1760825 20.6474227,18.1701718 20.6184192,18.1598625 L20.6184192,3.86597938 L19.9740206,3.86597938 C11.0919588,3.86597938 3.86570447,11.0920962 3.86570447,19.9742955 C3.86570447,28.8564948 11.0920962,36.0824742 19.9742955,36.0824742 L20.6185567,36.0824742 L20.6185567,21.7887285 C21.3665979,21.5219244 21.9072165,20.8131959 21.9072165,19.9742955 C21.9072165,19.6398625 21.8137457,19.3293471 21.6636426,19.0548454 L25.6842612,14.0290034 C25.9110653,14.1224742 26.1578007,14.1752577 26.417457,14.1752577 C26.9257732,14.1752577 27.3852921,13.9741581 27.7305842,13.652646 L30.3105155,15.2002749 C30.2982818,15.2872852 30.2834364,15.3736082 30.2834364,15.4637801 C30.2834364,16.5294845 31.1506529,17.3968385 32.2164948,17.3968385 C33.2823368,17.3968385 34.1495533,16.529622 34.1495533,15.4639175 Z M38.0155326,6.44329897 C38.3705842,6.44329897 38.6599313,6.73264605 38.6599313,7.08769759 C38.6599313,7.44274914 38.3705842,7.73209622 38.0155326,7.73209622 C37.6604811,7.73209622 37.371134,7.44274914 37.371134,7.08769759 C37.371134,6.73264605 37.6604811,6.44329897 38.0155326,6.44329897 Z M19.3298969,12.8588316 C17.3891409,12.7608247 15.6327148,12.2441237 14.158488,11.5920275 C15.7905155,8.39931271 18.0637801,6.52054983 19.3298969,5.65773196 L19.3298969,12.8588316 Z M13.0302405,11.0431615 C11.6334021,10.3002062 10.5850172,9.51092784 10.0019244,9.02639175 C12.0927835,7.12041237 14.72811,5.80412371 17.6449485,5.3414433 C16.2570447,6.47546392 14.4265292,8.33512027 13.0302405,11.0431615 Z M12.4768385,12.2248797 C11.6365636,14.1932646 11.0490722,16.5490034 10.9685223,19.3298969 L5.17072165,19.3298969 C5.32604811,15.7165636 6.78281787,12.4361512 9.08109966,9.94199313 C9.70680412,10.4768385 10.8808247,11.3833677 12.4768385,12.2248797 Z M10.9683849,20.6185567 C11.0482474,23.4001375 11.6365636,25.7557388 12.476701,27.7235739 C10.8806873,28.5650859 9.70666667,29.4716151 9.08109966,30.0057732 C6.78226804,27.5123024 5.32604811,24.2320275 5.17072165,20.6185567 L10.9683849,20.6185567 Z M13.0302405,28.9052921 C14.4265292,31.6134708 16.2570447,33.4729897 17.6449485,34.6070103 C14.7274227,34.1443299 12.0920962,32.8280412 10.0019244,30.9220619 C10.5850172,30.4375258 11.6334021,29.6475601 13.0302405,28.9052921 Z M14.1836426,28.3459794 C15.6527835,27.6984192 17.4001375,27.1874914 19.3298969,27.0901718 L19.3298969,34.2776632 C18.0747766,33.4039863 15.8163574,31.5109278 14.1836426,28.3459794 Z M19.3298969,25.8002749 C17.1740206,25.8975945 15.2421993,26.4548454 13.6334021,27.1642612 C12.8705155,25.3505155 12.3356701,23.1810309 12.257732,20.6191065 L18.1604124,20.6191065 C18.3550515,21.164811 18.7847423,21.5946392 19.3305842,21.7892784 L19.3305842,25.8002749 L19.3298969,25.8002749 L19.3298969,25.8002749 Z M18.1598625,19.3298969 L12.2564948,19.3298969 C12.3331959,16.7576632 12.8596564,14.5863918 13.6122337,12.7758076 C15.225567,13.4890722 17.1650859,14.0509966 19.3300344,14.1481787 L19.3300344,18.1597251 C18.7841924,18.3543643 18.3543643,18.7841924 18.1598625,19.3298969 Z M19.9742955,20.6185567 C19.619244,20.6185567 19.3298969,20.3292096 19.3298969,19.9741581 C19.3298969,19.6191065 19.619244,19.3297595 19.9742955,19.3297595 C20.3293471,19.3297595 20.6186942,19.6191065 20.6186942,19.9741581 C20.6185567,20.3292096 20.3292096,20.6185567 19.9742955,20.6185567 Z M26.4175945,12.8865979 C26.062543,12.8865979 25.7731959,12.5972509 25.7731959,12.2421993 C25.7731959,11.8871478 26.062543,11.5978007 26.4175945,11.5978007 C26.772646,11.5978007 27.0619931,11.8871478 27.0619931,12.2421993 C27.0619931,12.5972509 26.7725086,12.8865979 26.4175945,12.8865979 Z M32.2164948,16.1083162 C31.8614433,16.1083162 31.5720962,15.8189691 31.5720962,15.4639175 C31.5720962,15.108866 31.8614433,14.8195189 32.2164948,14.8195189 C32.5715464,14.8195189 32.8608935,15.108866 32.8608935,15.4639175 C32.8608935,15.8189691 32.5715464,16.1083162 32.2164948,16.1083162 Z" id="Shape" fill-rule="nonzero"></path>
                                </g>
                            </g>
                        </g>
                    </g>
                </g>
            </g>
        </g>
    </g>
</svg>